<?xml version="1.0" encoding="UTF-8" standalone="no"?>
<!DOCTYPE svg PUBLIC "-//W3C//DTD SVG 1.1//EN" "http://www.w3.org/Graphics/SVG/1.1/DTD/svg11.dtd">
<svg width="100%" height="100%" viewBox="0 0 337 318" version="1.1" xmlns="http://www.w3.org/2000/svg" xmlns:xlink="http://www.w3.org/1999/xlink" xml:space="preserve" xmlns:serif="http://www.serif.com/" style="fill-rule:evenodd;clip-rule:evenodd;stroke-linejoin:round;stroke-miterlimit:2;">
    <g transform="matrix(0.9375,0,0,0.9375,-48,-48.9512)">
        <path d="M194.035,52.215C177.653,55.856 161.447,60.928 146.254,68.575C146.602,81.991 147.469,94.845 149.227,107.902C143.327,111.682 137.126,114.927 131.615,119.352C126.015,123.66 120.295,127.781 115.225,132.819C105.096,126.119 94.376,119.822 83.331,114.265C71.426,127.077 60.293,140.906 51.2,156.381C58.347,167.599 66.012,178.874 73.11,187.667L73.11,282.642C73.284,282.643 73.459,282.648 73.631,282.665L131.856,288.279C134.906,288.574 137.296,291.029 137.508,294.085L139.304,319.787L190.094,323.413L193.592,299.69C194.045,296.614 196.685,294.333 199.796,294.333L261.225,294.333C264.334,294.333 266.973,296.614 267.427,299.69L270.925,323.413L321.717,319.787L323.51,294.085C323.724,291.029 326.113,288.575 329.163,288.279L387.365,282.665C387.537,282.649 387.71,282.643 387.883,282.642L387.883,275.062L387.908,275.056L387.908,187.667C396.107,177.345 403.87,165.96 409.819,156.381C400.729,140.906 389.591,127.077 377.685,114.265C366.644,119.822 355.919,126.119 345.79,132.819C340.721,127.781 335.012,123.66 329.404,119.352C323.895,114.927 317.685,111.682 311.796,107.902C313.549,94.845 314.418,81.991 314.767,68.575C299.572,60.928 283.367,55.856 266.977,52.215C260.433,63.213 254.449,75.124 249.238,86.767C243.057,85.734 236.849,85.351 230.631,85.277L230.631,85.267C230.588,85.267 230.547,85.277 230.51,85.277C230.472,85.277 230.43,85.267 230.392,85.267L230.392,85.277C224.163,85.351 217.959,85.734 211.777,86.767C206.568,75.124 200.589,63.213 194.035,52.215ZM147.971,191.15C167.351,191.15 183.06,206.847 183.06,226.221C183.06,245.608 167.351,261.313 147.971,261.313C128.6,261.313 112.888,245.608 112.888,226.221C112.888,206.847 128.6,191.15 147.971,191.15ZM313.052,191.15C332.421,191.15 348.131,206.847 348.131,226.221C348.131,245.608 332.421,261.313 313.052,261.313C293.668,261.313 277.96,245.608 277.96,226.221C277.96,206.847 293.668,191.15 313.052,191.15ZM230.506,211.673C236.744,211.673 241.813,216.275 241.813,221.938L241.813,254.24C241.813,259.907 236.744,264.504 230.506,264.504C224.268,264.504 219.213,259.907 219.213,254.24L219.213,221.938C219.213,216.275 224.268,211.673 230.506,211.673Z" style="fill:white;fill-rule:nonzero;"/>
    </g>
    <g transform="matrix(1,0,0,1,-48,-48.9512)">
        <path d="M314.671,281.486L312.981,305.71C312.777,308.63 310.455,310.954 307.535,311.163L249.391,315.312C249.249,315.323 249.108,315.327 248.967,315.327C246.078,315.327 243.585,313.207 243.158,310.305L239.824,287.693L192.382,287.693L189.047,310.305C188.599,313.349 185.879,315.537 182.814,315.312L124.671,311.163C121.751,310.954 119.429,308.63 119.225,305.71L117.534,281.486L68.451,276.754C68.474,282.029 68.542,287.808 68.542,288.959C68.542,340.797 134.301,365.713 216.002,366L216.203,366C297.904,365.713 363.641,340.797 363.641,288.959C363.641,287.787 363.712,282.032 363.736,276.754L314.671,281.486Z" style="fill:white;fill-rule:nonzero;"/>
        <path d="M163.703,214.033C163.703,226.088 153.933,235.859 141.868,235.859C129.809,235.859 120.033,226.088 120.033,214.033C120.033,201.977 129.809,192.197 141.868,192.197C153.933,192.197 163.703,201.977 163.703,214.033" style="fill:white;fill-rule:nonzero;"/>
        <path d="M268.504,214.033C268.504,226.088 278.272,235.859 290.327,235.859C302.395,235.859 312.163,226.088 312.163,214.033C312.163,201.977 302.395,192.197 290.327,192.197C278.272,192.197 268.504,201.977 268.504,214.033" style="fill:white;fill-rule:nonzero;"/>
    </g>
</svg>
