<?xml version="1.0" encoding="UTF-8" standalone="no"?>
<!DOCTYPE svg PUBLIC "-//W3C//DTD SVG 1.1//EN" "http://www.w3.org/Graphics/SVG/1.1/DTD/svg11.dtd">
<svg width="100%" height="100%" viewBox="0 0 327 323" version="1.1" xmlns="http://www.w3.org/2000/svg" xmlns:xlink="http://www.w3.org/1999/xlink" xml:space="preserve" xmlns:serif="http://www.serif.com/" style="fill-rule:evenodd;clip-rule:evenodd;stroke-linejoin:round;stroke-miterlimit:2;">
    <g transform="matrix(1,0,0,1,-34.113,-31.3586)">
        <path d="M129.213,235.713C143.272,235.713 154.686,246.959 154.686,260.811C154.686,274.663 143.272,285.909 129.213,285.909C115.154,285.909 103.739,274.663 103.739,260.811C103.739,246.959 115.154,235.713 129.213,235.713ZM133.898,168.019C144.18,169.905 152.3,177.887 154.242,188.008L170.171,188.008L170.171,197.378L154.242,197.378C152.299,207.5 144.18,215.48 133.898,217.367L133.898,232.488L124.528,232.488L124.528,217.367C112.704,215.198 103.739,204.969 103.739,192.693C103.739,180.417 112.704,170.188 124.528,168.019L124.528,153.095L133.898,153.095L133.898,168.019ZM197.839,167.595C211.898,167.595 223.313,178.841 223.313,192.693C223.313,206.545 211.898,217.791 197.839,217.791C183.78,217.791 172.366,206.545 172.366,192.693C172.366,178.841 183.78,167.595 197.839,167.595ZM129.213,99.477C143.272,99.477 154.686,110.723 154.686,124.575C154.686,138.427 143.272,149.673 129.213,149.673C115.154,149.673 103.739,138.427 103.739,124.575C103.739,110.723 115.154,99.477 129.213,99.477ZM266.466,99.477C280.525,99.477 291.939,110.723 291.939,124.575C291.939,138.427 280.525,149.673 266.466,149.673C252.407,149.673 240.992,138.427 240.992,124.575C240.992,110.723 252.407,99.477 266.466,99.477ZM172.81,119.89C175.04,108.273 185.405,99.477 197.839,99.477C210.273,99.477 220.638,108.273 222.869,119.89L238.349,119.89L238.349,129.26L222.869,129.26C220.638,140.877 210.273,149.673 197.839,149.673C185.405,149.673 175.04,140.877 172.81,129.26L157.434,129.26L157.434,119.89L172.81,119.89Z" style="fill:rgb(255,176,0);"/>
        <path d="M202.024,304.169C214.096,306.138 223.313,316.482 223.313,328.929C223.313,342.781 211.898,354.027 197.839,354.027C183.78,354.027 172.366,342.781 172.366,328.929C172.366,316.828 181.077,306.716 192.654,304.352L192.654,289.137L202.024,289.137L202.024,304.169ZM202.024,236.051C214.096,238.02 223.313,248.364 223.313,260.811C223.313,274.663 211.898,285.909 197.839,285.909C183.78,285.909 172.366,274.663 172.366,260.811C172.366,248.71 181.077,238.598 192.654,236.234L192.654,220.466L202.024,220.466L202.024,236.051ZM241.436,256.126C243.667,244.509 254.032,235.713 266.466,235.713C280.525,235.713 291.939,246.959 291.939,260.811C291.939,274.663 280.525,285.909 266.466,285.909C254.032,285.909 243.667,277.113 241.436,265.496L226.133,265.496L226.133,256.126L241.436,256.126ZM84.616,197.378C82.386,208.995 72.02,217.791 59.586,217.791C45.527,217.791 34.113,206.545 34.113,192.693C34.113,178.841 45.527,167.595 59.586,167.595C72.02,167.595 82.386,176.391 84.616,188.008L102.079,188.008L102.079,197.378L84.616,197.378ZM241.436,188.008C243.667,176.391 254.032,167.595 266.466,167.595C280.525,167.595 291.939,178.841 291.939,192.693C291.939,206.545 280.525,217.791 266.466,217.791C254.032,217.791 243.667,208.995 241.436,197.378L226.133,197.378L226.133,188.008L241.436,188.008ZM310.063,188.008C312.293,176.391 322.658,167.595 335.092,167.595C349.151,167.595 360.566,178.841 360.566,192.693C360.566,206.545 349.151,217.791 335.092,217.791C322.658,217.791 312.293,208.995 310.063,197.378L294.292,197.378L294.292,188.008L310.063,188.008ZM192.654,81.034C181.077,78.67 172.366,68.558 172.366,56.457C172.366,42.605 183.78,31.359 197.839,31.359C211.898,31.359 223.313,42.605 223.313,56.457C223.313,68.904 214.096,79.247 202.024,81.217L202.024,96.646L192.654,96.646L192.654,81.034Z" style="fill:url(#_Linear1);"/>
    </g>
    <defs>
        <linearGradient id="_Linear1" x1="0" y1="0" x2="1" y2="0" gradientUnits="userSpaceOnUse" gradientTransform="matrix(218.684,-212.866,212.866,218.684,89.0142,301.668)"><stop offset="0" style="stop-color:rgb(104,57,202);stop-opacity:1"/><stop offset="1" style="stop-color:rgb(147,212,230);stop-opacity:1"/></linearGradient>
    </defs>
</svg>
